<svg width="504" height="450" xmlns="http://www.w3.org/2000/svg"><rect x="10" y="20" width="484" height="20" fill="lightgrey" stroke="black" stroke-width="1"/><text x="20" y="35" font-family="Arial" font-size="14" fill="black">Expression</text><rect x="10" y="60" width="484" height="20" fill="white" stroke="black" stroke-width="1"/><text x="20" y="75" font-family="Arial" font-size="14" fill="black">id (BigAutoField)</text><rect x="10" y="80" width="484" height="20" fill="white" stroke="black" stroke-width="1"/><text x="20" y="95" font-family="Arial" font-size="14" fill="black">upload_date (DateField)</text><rect x="10" y="100" width="484" height="20" fill="white" stroke="black" stroke-width="1"/><text x="20" y="115" font-family="Arial" font-size="14" fill="black">modified_date (DateTimeField)</text><rect x="10" y="120" width="484" height="20" fill="white" stroke="black" stroke-width="1"/><text x="20" y="135" font-family="Arial" font-size="14" fill="black">batch (CharField)</text><rect x="10" y="140" width="484" height="20" fill="white" stroke="black" stroke-width="1"/><text x="20" y="155" font-family="Arial" font-size="14" fill="black">strain (CharField)</text><rect x="10" y="160" width="484" height="20" fill="white" stroke="black" stroke-width="1"/><text x="20" y="175" font-family="Arial" font-size="14" fill="black">replicate (PositiveIntegerField)</text><rect x="10" y="180" width="484" height="20" fill="white" stroke="black" stroke-width="1"/><text x="20" y="195" font-family="Arial" font-size="14" fill="black">control (CharField)</text><rect x="10" y="200" width="484" height="20" fill="white" stroke="black" stroke-width="1"/><text x="20" y="215" font-family="Arial" font-size="14" fill="black">mechanism (CharField)</text><rect x="10" y="220" width="484" height="20" fill="white" stroke="black" stroke-width="1"/><text x="20" y="235" font-family="Arial" font-size="14" fill="black">restriction (CharField)</text><rect x="10" y="240" width="484" height="20" fill="white" stroke="black" stroke-width="1"/><text x="20" y="255" font-family="Arial" font-size="14" fill="black">time (PositiveIntegerField)</text><rect x="10" y="260" width="484" height="20" fill="white" stroke="black" stroke-width="1"/><text x="20" y="275" font-family="Arial" font-size="14" fill="black">file (FileField)</text><rect x="10" y="280" width="484" height="20" fill="white" stroke="black" stroke-width="1"/><text x="20" y="295" font-family="Arial" font-size="14" fill="black">notes (CharField)</text><rect x="10" y="320" width="484" height="20" fill="white" stroke="black" stroke-width="1"/><text x="20" y="335" font-family="Arial" font-size="14" fill="black">expressionmanualqc -> ExpressionManualQC (UnknownRelation)</text><rect x="10" y="340" width="484" height="20" fill="white" stroke="black" stroke-width="1"/><text x="20" y="355" font-family="Arial" font-size="14" fill="black">rankresponse -> RankResponse (UnknownRelation)</text><rect x="10" y="360" width="484" height="20" fill="white" stroke="black" stroke-width="1"/><text x="20" y="375" font-family="Arial" font-size="14" fill="black">uploader -> User (ForeignKey)</text><rect x="10" y="380" width="484" height="20" fill="white" stroke="black" stroke-width="1"/><text x="20" y="395" font-family="Arial" font-size="14" fill="black">modifier -> User (ForeignKey)</text><rect x="10" y="400" width="484" height="20" fill="white" stroke="black" stroke-width="1"/><text x="20" y="415" font-family="Arial" font-size="14" fill="black">regulator -> Regulator (ForeignKey)</text><rect x="10" y="420" width="484" height="20" fill="white" stroke="black" stroke-width="1"/><text x="20" y="435" font-family="Arial" font-size="14" fill="black">source -> DataSource (ForeignKey)</text></svg>