<svg width="568" height="430" xmlns="http://www.w3.org/2000/svg"><rect x="10" y="20" width="548" height="20" fill="lightgrey" stroke="black" stroke-width="1"/><text x="20" y="35" font-family="Arial" font-size="14" fill="black">FileFormat</text><rect x="10" y="60" width="548" height="20" fill="white" stroke="black" stroke-width="1"/><text x="20" y="75" font-family="Arial" font-size="14" fill="black">id (BigAutoField)</text><rect x="10" y="80" width="548" height="20" fill="white" stroke="black" stroke-width="1"/><text x="20" y="95" font-family="Arial" font-size="14" fill="black">upload_date (DateField)</text><rect x="10" y="100" width="548" height="20" fill="white" stroke="black" stroke-width="1"/><text x="20" y="115" font-family="Arial" font-size="14" fill="black">modified_date (DateTimeField)</text><rect x="10" y="120" width="548" height="20" fill="white" stroke="black" stroke-width="1"/><text x="20" y="135" font-family="Arial" font-size="14" fill="black">fileformat (CharField)</text><rect x="10" y="140" width="548" height="20" fill="white" stroke="black" stroke-width="1"/><text x="20" y="155" font-family="Arial" font-size="14" fill="black">fields (JSONField)</text><rect x="10" y="160" width="548" height="20" fill="white" stroke="black" stroke-width="1"/><text x="20" y="175" font-family="Arial" font-size="14" fill="black">separator (CharField)</text><rect x="10" y="180" width="548" height="20" fill="white" stroke="black" stroke-width="1"/><text x="20" y="195" font-family="Arial" font-size="14" fill="black">feature_identifier_col (CharField)</text><rect x="10" y="200" width="548" height="20" fill="white" stroke="black" stroke-width="1"/><text x="20" y="215" font-family="Arial" font-size="14" fill="black">effect_col (CharField)</text><rect x="10" y="220" width="548" height="20" fill="white" stroke="black" stroke-width="1"/><text x="20" y="235" font-family="Arial" font-size="14" fill="black">default_effect_threshold (FloatField)</text><rect x="10" y="240" width="548" height="20" fill="white" stroke="black" stroke-width="1"/><text x="20" y="255" font-family="Arial" font-size="14" fill="black">pval_col (CharField)</text><rect x="10" y="260" width="548" height="20" fill="white" stroke="black" stroke-width="1"/><text x="20" y="275" font-family="Arial" font-size="14" fill="black">default_pvalue_threshold (FloatField)</text><rect x="10" y="300" width="548" height="20" fill="white" stroke="black" stroke-width="1"/><text x="20" y="315" font-family="Arial" font-size="14" fill="black">callingcardsbackground -> CallingCardsBackground (UnknownRelation)</text><rect x="10" y="320" width="548" height="20" fill="white" stroke="black" stroke-width="1"/><text x="20" y="335" font-family="Arial" font-size="14" fill="black">datasource -> DataSource (UnknownRelation)</text><rect x="10" y="340" width="548" height="20" fill="white" stroke="black" stroke-width="1"/><text x="20" y="355" font-family="Arial" font-size="14" fill="black">promotersetsig -> PromoterSetSig (UnknownRelation)</text><rect x="10" y="360" width="548" height="20" fill="white" stroke="black" stroke-width="1"/><text x="20" y="375" font-family="Arial" font-size="14" fill="black">rankresponse -> RankResponse (UnknownRelation)</text><rect x="10" y="380" width="548" height="20" fill="white" stroke="black" stroke-width="1"/><text x="20" y="395" font-family="Arial" font-size="14" fill="black">uploader -> User (ForeignKey)</text><rect x="10" y="400" width="548" height="20" fill="white" stroke="black" stroke-width="1"/><text x="20" y="415" font-family="Arial" font-size="14" fill="black">modifier -> User (ForeignKey)</text></svg>