<svg width="360" height="410" xmlns="http://www.w3.org/2000/svg"><rect x="10" y="20" width="340" height="20" fill="lightgrey" stroke="black" stroke-width="1"/><text x="20" y="35" font-family="Arial" font-size="14" fill="black">GenomicFeature</text><rect x="10" y="60" width="340" height="20" fill="white" stroke="black" stroke-width="1"/><text x="20" y="75" font-family="Arial" font-size="14" fill="black">id (BigAutoField)</text><rect x="10" y="80" width="340" height="20" fill="white" stroke="black" stroke-width="1"/><text x="20" y="95" font-family="Arial" font-size="14" fill="black">upload_date (DateField)</text><rect x="10" y="100" width="340" height="20" fill="white" stroke="black" stroke-width="1"/><text x="20" y="115" font-family="Arial" font-size="14" fill="black">modified_date (DateTimeField)</text><rect x="10" y="120" width="340" height="20" fill="white" stroke="black" stroke-width="1"/><text x="20" y="135" font-family="Arial" font-size="14" fill="black">start (PositiveIntegerField)</text><rect x="10" y="140" width="340" height="20" fill="white" stroke="black" stroke-width="1"/><text x="20" y="155" font-family="Arial" font-size="14" fill="black">end (PositiveIntegerField)</text><rect x="10" y="160" width="340" height="20" fill="white" stroke="black" stroke-width="1"/><text x="20" y="175" font-family="Arial" font-size="14" fill="black">strand (CharField)</text><rect x="10" y="180" width="340" height="20" fill="white" stroke="black" stroke-width="1"/><text x="20" y="195" font-family="Arial" font-size="14" fill="black">type (CharField)</text><rect x="10" y="200" width="340" height="20" fill="white" stroke="black" stroke-width="1"/><text x="20" y="215" font-family="Arial" font-size="14" fill="black">locus_tag (CharField)</text><rect x="10" y="220" width="340" height="20" fill="white" stroke="black" stroke-width="1"/><text x="20" y="235" font-family="Arial" font-size="14" fill="black">symbol (CharField)</text><rect x="10" y="240" width="340" height="20" fill="white" stroke="black" stroke-width="1"/><text x="20" y="255" font-family="Arial" font-size="14" fill="black">source (CharField)</text><rect x="10" y="260" width="340" height="20" fill="white" stroke="black" stroke-width="1"/><text x="20" y="275" font-family="Arial" font-size="14" fill="black">alias (CharField)</text><rect x="10" y="280" width="340" height="20" fill="white" stroke="black" stroke-width="1"/><text x="20" y="295" font-family="Arial" font-size="14" fill="black">note (CharField)</text><rect x="10" y="320" width="340" height="20" fill="white" stroke="black" stroke-width="1"/><text x="20" y="335" font-family="Arial" font-size="14" fill="black">regulator -> Regulator (UnknownRelation)</text><rect x="10" y="340" width="340" height="20" fill="white" stroke="black" stroke-width="1"/><text x="20" y="355" font-family="Arial" font-size="14" fill="black">uploader -> User (ForeignKey)</text><rect x="10" y="360" width="340" height="20" fill="white" stroke="black" stroke-width="1"/><text x="20" y="375" font-family="Arial" font-size="14" fill="black">modifier -> User (ForeignKey)</text><rect x="10" y="380" width="340" height="20" fill="white" stroke="black" stroke-width="1"/><text x="20" y="395" font-family="Arial" font-size="14" fill="black">chr -> ChrMap (ForeignKey)</text></svg>