<svg width="440" height="270" xmlns="http://www.w3.org/2000/svg"><rect x="10" y="20" width="420" height="20" fill="lightgrey" stroke="black" stroke-width="1"/><text x="20" y="35" font-family="Arial" font-size="14" fill="black">PromoterSet</text><rect x="10" y="60" width="420" height="20" fill="white" stroke="black" stroke-width="1"/><text x="20" y="75" font-family="Arial" font-size="14" fill="black">id (BigAutoField)</text><rect x="10" y="80" width="420" height="20" fill="white" stroke="black" stroke-width="1"/><text x="20" y="95" font-family="Arial" font-size="14" fill="black">upload_date (DateField)</text><rect x="10" y="100" width="420" height="20" fill="white" stroke="black" stroke-width="1"/><text x="20" y="115" font-family="Arial" font-size="14" fill="black">modified_date (DateTimeField)</text><rect x="10" y="120" width="420" height="20" fill="white" stroke="black" stroke-width="1"/><text x="20" y="135" font-family="Arial" font-size="14" fill="black">name (CharField)</text><rect x="10" y="140" width="420" height="20" fill="white" stroke="black" stroke-width="1"/><text x="20" y="155" font-family="Arial" font-size="14" fill="black">file (FileField)</text><rect x="10" y="160" width="420" height="20" fill="white" stroke="black" stroke-width="1"/><text x="20" y="175" font-family="Arial" font-size="14" fill="black">notes (CharField)</text><rect x="10" y="200" width="420" height="20" fill="white" stroke="black" stroke-width="1"/><text x="20" y="215" font-family="Arial" font-size="14" fill="black">promotersetsig -> PromoterSetSig (UnknownRelation)</text><rect x="10" y="220" width="420" height="20" fill="white" stroke="black" stroke-width="1"/><text x="20" y="235" font-family="Arial" font-size="14" fill="black">uploader -> User (ForeignKey)</text><rect x="10" y="240" width="420" height="20" fill="white" stroke="black" stroke-width="1"/><text x="20" y="255" font-family="Arial" font-size="14" fill="black">modifier -> User (ForeignKey)</text></svg>