<svg width="400" height="290" xmlns="http://www.w3.org/2000/svg"><rect x="10" y="20" width="380" height="20" fill="lightgrey" stroke="black" stroke-width="1"/><text x="20" y="35" font-family="Arial" font-size="14" fill="black">Regulator</text><rect x="10" y="60" width="380" height="20" fill="white" stroke="black" stroke-width="1"/><text x="20" y="75" font-family="Arial" font-size="14" fill="black">id (BigAutoField)</text><rect x="10" y="80" width="380" height="20" fill="white" stroke="black" stroke-width="1"/><text x="20" y="95" font-family="Arial" font-size="14" fill="black">upload_date (DateField)</text><rect x="10" y="100" width="380" height="20" fill="white" stroke="black" stroke-width="1"/><text x="20" y="115" font-family="Arial" font-size="14" fill="black">modified_date (DateTimeField)</text><rect x="10" y="120" width="380" height="20" fill="white" stroke="black" stroke-width="1"/><text x="20" y="135" font-family="Arial" font-size="14" fill="black">under_development (BooleanField)</text><rect x="10" y="140" width="380" height="20" fill="white" stroke="black" stroke-width="1"/><text x="20" y="155" font-family="Arial" font-size="14" fill="black">notes (CharField)</text><rect x="10" y="180" width="380" height="20" fill="white" stroke="black" stroke-width="1"/><text x="20" y="195" font-family="Arial" font-size="14" fill="black">binding -> Binding (UnknownRelation)</text><rect x="10" y="200" width="380" height="20" fill="white" stroke="black" stroke-width="1"/><text x="20" y="215" font-family="Arial" font-size="14" fill="black">expression -> Expression (UnknownRelation)</text><rect x="10" y="220" width="380" height="20" fill="white" stroke="black" stroke-width="1"/><text x="20" y="235" font-family="Arial" font-size="14" fill="black">uploader -> User (ForeignKey)</text><rect x="10" y="240" width="380" height="20" fill="white" stroke="black" stroke-width="1"/><text x="20" y="255" font-family="Arial" font-size="14" fill="black">modifier -> User (ForeignKey)</text><rect x="10" y="260" width="380" height="20" fill="white" stroke="black" stroke-width="1"/><text x="20" y="275" font-family="Arial" font-size="14" fill="black">genomicfeature -> GenomicFeature (ForeignKey)</text></svg>